<?xml version="1.0" standalone="no"?>
<!DOCTYPE svg PUBLIC "-//W3C//DTD SVG 20010904//EN"
 "http://www.w3.org/TR/2001/REC-SVG-20010904/DTD/svg10.dtd">
<svg version="1.0" xmlns="http://www.w3.org/2000/svg"
 width="512.000000pt" height="512.000000pt" viewBox="0 0 512.000000 512.000000"
 preserveAspectRatio="xMidYMid meet">
<metadata>
Created by CoolUtils
</metadata>
<g transform="translate(0.000000,512.000000) scale(0.100000,-0.100000)"
fill="#000000" stroke="none">
<path d="M0 2560 l0 -2560 2560 0 2560 0 0 2560 0 2560 -2560 0 -2560 0 0
-2560z m1285 2396 c60 -25 75 -64 75 -193 l0 -113 -115 0 c-110 0 -117 -1
-140 -25 -32 -31 -32 -69 0 -100 23 -24 30 -25 140 -25 l115 0 0 -742 c0 -728
0 -744 -20 -776 -38 -62 -37 -62 -587 -62 -464 0 -501 1 -532 18 -19 10 -43
34 -53 53 -17 32 -18 76 -18 771 l0 738 342 0 c337 0 342 0 365 22 30 28 30
74 1 105 l-21 23 -344 0 -343 0 0 108 c0 124 14 164 71 194 31 17 68 18 532
18 410 0 504 -3 532 -14z m3164 -69 c22 -15 41 -31 41 -35 0 -7 -2663 -1565
-2685 -1570 -10 -2 -67 84 -93 139 -2 4 43 34 100 67 57 33 614 358 1238 722
624 365 1155 674 1180 687 63 34 159 30 219 -10z m466 -1801 c62 -26 74 -89
26 -137 l-29 -29 -202 0 c-200 0 -201 0 -225 -25 -30 -30 -32 -64 -4 -99 19
-24 26 -26 95 -26 l74 0 0 -109 c0 -513 -337 -930 -840 -1038 -77 -16 -141
-18 -685 -18 -592 0 -601 1 -680 23 -294 83 -502 291 -575 576 -17 69 -20 111
-20 323 l0 243 1180 0 1181 0 24 25 c32 31 32 69 0 100 l-24 25 -1181 0 -1180
0 0 90 0 90 1515 0 c1284 0 1521 -2 1550 -14z m-3223 -1071 c3 -739 3 -755 23
-774 11 -11 32 -23 47 -26 22 -6 33 -1 58 23 l30 30 0 302 0 301 61 -76 c34
-42 72 -83 85 -92 l24 -15 0 -520 c0 -547 -1 -565 -45 -582 -35 -13 -82 -6
-101 15 -17 18 -20 42 -24 195 -5 161 -7 175 -27 195 -28 28 -79 28 -107 -1
-18 -18 -21 -35 -25 -136 -7 -250 20 -337 128 -397 122 -69 266 -21 327 108
l24 50 0 478 c0 262 2 477 5 477 3 0 25 -10 48 -21 71 -37 178 -69 277 -85 76
-11 211 -14 670 -13 l574 1 259 -637 c211 -519 257 -638 247 -650 -11 -13
-221 -15 -1650 -15 l-1637 0 -7 92 c-3 50 -6 391 -6 757 0 730 0 723 -60 846
-56 114 -160 217 -276 274 -68 33 -168 61 -221 61 l-33 0 0 295 0 295 665 0
665 0 2 -755z"/>
</g>
</svg>
