<?xml version="1.0" standalone="no"?>
<!DOCTYPE svg PUBLIC "-//W3C//DTD SVG 20010904//EN"
 "http://www.w3.org/TR/2001/REC-SVG-20010904/DTD/svg10.dtd">
<svg version="1.0" xmlns="http://www.w3.org/2000/svg"
 width="32.000000pt" height="32.000000pt" viewBox="0 0 32.000000 32.000000"
 preserveAspectRatio="xMidYMid meet">
<metadata>
Created by CoolUtils
</metadata>
<g transform="translate(0.000000,32.000000) scale(0.100000,-0.100000)"
fill="#000000" stroke="none">
<path d="M24 278 c3 -30 7 -32 34 -24 29 10 28 24 -4 36 -34 13 -33 13 -30
-12z"/>
<path d="M21 120 l0 -100 139 0 139 0 -2 98 -2 97 -137 3 -137 3 0 -101z m51
-7 c0 -36 15 -27 20 11 3 24 0 32 -9 29 -7 -3 -13 0 -13 6 0 6 7 11 15 11 8 0
15 7 15 15 0 10 10 15 27 15 l27 0 -22 -16 c-30 -21 -29 -59 3 -80 23 -15 27
-15 50 0 32 21 33 59 3 80 -22 16 -22 16 10 16 28 0 32 -3 33 -27 2 -28 2 -28
7 -3 l5 25 8 -25 7 -25 1 28 c1 16 5 26 11 22 14 -9 13 -48 -2 -63 -9 -9 -9
-15 0 -24 17 -17 15 -28 -5 -29 -15 0 -15 -2 2 -9 15 -6 4 -9 -40 -11 l-60 -2
55 -7 55 -7 -60 -2 c-98 -4 -159 0 -174 12 -11 10 2 13 60 18 l74 5 -70 2 -70
2 3 48 c5 69 13 84 24 42 6 -19 10 -45 10 -57z m115 41 c8 -21 -19 -46 -40
-38 -17 6 -23 35 -10 47 12 13 44 7 50 -9z"/>
<path d="M230 110 c0 -11 5 -20 10 -20 6 0 10 9 10 20 0 11 -4 20 -10 20 -5 0
-10 -9 -10 -20z"/>
</g>
</svg>
