<?xml version="1.0" standalone="no"?>
<!DOCTYPE svg PUBLIC "-//W3C//DTD SVG 20010904//EN"
 "http://www.w3.org/TR/2001/REC-SVG-20010904/DTD/svg10.dtd">
<svg version="1.0" xmlns="http://www.w3.org/2000/svg"
 width="512.000000pt" height="512.000000pt" viewBox="0 0 512.000000 512.000000"
 preserveAspectRatio="xMidYMid meet">
<metadata>
Created by CoolUtils
</metadata>
<g transform="translate(0.000000,512.000000) scale(0.100000,-0.100000)"
fill="#000000" stroke="none">
<path d="M0 2560 l0 -2560 2560 0 2560 0 0 2560 0 2560 -2560 0 -2560 0 0
-2560z m4080 1908 l815 -474 0 -149 0 -149 -64 -40 c-60 -38 -65 -39 -90 -25
-14 8 -44 25 -67 38 l-41 23 -179 -105 c-98 -57 -289 -168 -424 -246 -135 -79
-338 -197 -452 -264 l-208 -120 0 -90 0 -89 23 14 c36 24 1029 600 1060 616
85 43 206 -66 207 -187 0 -24 -22 -150 -49 -280 -28 -130 -77 -387 -111 -571
-71 -385 -76 -399 -160 -443 -53 -28 -124 -69 -279 -163 -40 -25 -110 -65
-156 -89 -45 -24 -127 -71 -181 -104 -54 -33 -226 -134 -381 -225 -249 -147
-287 -166 -326 -166 -35 0 -74 15 -188 72 -79 40 -153 78 -164 83 -12 6 -68
33 -125 62 -57 28 -107 50 -110 48 -3 -2 -30 8 -60 23 -125 63 -200 260 -133
350 11 14 203 133 444 273 l424 247 3 231 c1 127 0 231 -3 231 -3 0 -85 -47
-183 -104 -97 -57 -287 -167 -422 -245 -135 -79 -300 -175 -367 -214 l-123
-71 0 -72 0 -72 -64 -40 -64 -40 -679 390 c-373 214 -684 392 -691 395 -10 4
-12 -192 -10 -977 l3 -982 248 -145 247 -146 0 -77 0 -78 -66 -42 -66 -41 -92
53 c-50 29 -196 114 -324 188 l-232 135 7 1290 c3 710 9 1291 12 1293 3 2 681
396 1506 877 825 481 1505 872 1510 870 6 -2 377 -216 825 -477z"/>
<path d="M3388 3112 l-1498 -867 0 -68 c0 -67 0 -68 22 -56 24 12 345 199
1033 599 215 125 586 341 825 480 239 139 589 343 778 452 l342 200 0 64 c0
35 -1 64 -2 63 -2 0 -677 -390 -1500 -867z"/>
</g>
</svg>
